<?xml version="1.0" encoding="UTF-8"?>
<svg width="100pt" height="100pt" version="1.1" viewBox="0 0 100 100" xmlns="http://www.w3.org/2000/svg">
 <path d="m53.246 66.145c1.6172 0.80469 2.7461 0.63672 3.0625-0.94141 0.48047-2.3867 0.70312-4.8242 1.1289-7.2266 0.55078-3.125 1.7422-6.0234 3.3945-8.7266 1.2891-2.1133 2.9375-3.8945 5.0234-5.2539 4.7188-3.0742 9.2305-2.7109 13.391 1.0898 6.6602 6.0781 4.9297 16.902-3.2891 20.391-0.74219 0.31641-1.6406 0.26563-2.6797 0.41797-0.13672-1.5938-0.10547-2.9844-0.39844-4.3086-0.4375-1.9844-1.5742-3.5273-3.6758-4.0195-2.2344-0.52734-4.1992 0.082032-5.6016 1.918-1.5 1.957-2.7148 4.0625-1.8633 6.9023 1.6992 0.21875 3.4023 0.4375 5.2344 0.67188 1.2461 2.1211 0.46484 4.2891 0.57031 6.6094-4.4727 1-8.6992-0.015625-12.883 0.75391-0.77344 2.4258 0.60938 4.0391 1.957 5.5898 0.88672 1.0195 1.9844 1.8594 2.8828 2.6875-0.55469 3.1523-3.1523 3.7422-5.1172 4.7969-1.2383 2.6367-1.5938 5.5781-4.2539 7.5117-3.0273-1.4688-3.1523-4.7305-4.5469-7.4883-1.8555-1.0391-4.4414-1.6484-5.1562-4.7109 1.9766-2.2891 5.2578-3.9805 5.1875-8.1445-2.0859-0.94531-4.3438-0.41016-6.5078-0.52344-2.0547-0.10547-4.1133-0.12109-6.2969-0.18359-0.66016-2.3633-0.50781-4.3789-0.21484-6.7656 1.9102-0.26562 3.7422-0.52344 5.6875-0.79688 0.87109-3.1719-0.48047-5.5586-2.5195-7.5352-2.9805-2.8945-7.6289-1.4805-8.6133 2.5547-0.32031 1.3242-0.27344 2.7383-0.41797 4.3906-4.1641-0.089844-6.8672-2.3359-8.6836-5.6133-3.1719-5.7266-0.73047-13.664 5.0039-16.852 3.1133-1.7305 6.2773-1.9141 9.5117-0.25391 2.8867 1.4805 5.0742 3.6641 6.7344 6.4062 1.6445 2.7148 2.7305 5.6523 3.3086 8.7617 0.47656 2.5664 0.84375 5.1523 1.2969 7.9727 0.76953 0.14453 1.5703 0.29688 2.6094 0.49609 0.21875-0.98828 0.52734-1.793 0.55469-2.6094 0.1875-5.1328-0.98047-10.051-2.6055-14.863-1.2812-3.7969-2.5742-7.6016-4.0898-11.312-2.4297-5.9531-2.1406-12.387 0.03125-18.367 1.9922-5.4883 5.0938-10.219 9.5234-14.539 0.87891 0.83984 1.668 1.4727 2.3086 2.2266 4.0039 4.7188 6.9688 9.9609 8.4336 16.051 1.1016 4.5625 0.94141 8.9922-0.62109 13.379-1.4609 4.1055-3.0312 8.1758-4.4648 12.289-1.6719 4.8008-2.8125 9.7188-2.6758 14.852 0.042969 0.83203 0.24609 1.6602 0.33984 2.3164z"/>
</svg>
