<?xml version="1.0" encoding="UTF-8"?>
<svg width="100pt" height="100pt" version="1.1" viewBox="0 0 100 100" xmlns="http://www.w3.org/2000/svg">
 <path d="m50 0l-7.6445 13.91c-0.73828 1.332-2.3711 1.8828-3.7695 1.2734l-6.4727-2.75 3.582 22.93c0.19141 1.2539-1.3125 2.0156-2.2266 1.1367l-10.121-9.832-1.5469 4.5352c-0.57422 1.668-2.3477 2.6328-4.0586 2.207l-10.105-2.5312 2.8867 14.027c0.33203 1.6094-0.52344 3.2305-2.0391 3.8555l-2.6836 1.0859 19.785 17.492c1.4258 1.2695 2.0469 3.1992 1.6289 5.0625l-1.1562 5.2148 18.734-2.4609c1.8711-0.24219 3.5234 1.2383 3.4805 3.1094l-0.47656 21.738h4.3828l-0.47656-21.738c-0.035156-1.8789 1.6211-3.3594 3.4805-3.1094l18.715 2.4609-1.1562-5.2148c-0.39844-1.8516 0.23828-3.793 1.6641-5.0625l19.77-17.492-5.2812-2.1758 3.4492-16.812-13.129 3.293-2.5625-7.4883-10.121 9.832c-0.90625 0.88672-2.418 0.11328-2.2266-1.1367l3.582-22.93-6.4688 2.75c-1.4102 0.60156-3.0391 0.058593-3.7695-1.2734l-7.6602-13.91z"/>
</svg>
